<svg width="60" height="60" viewBox="0 0 60 60" fill="none" xmlns="http://www.w3.org/2000/svg">
<rect width="60" height="60" rx="30" fill="#783DFF"/>
<rect x="5" y="5" width="50" height="50" rx="25" fill="white"/>
<path d="M18.28 37.32C17.2 37.32 16.2 37.1267 15.28 36.74C14.36 36.3533 13.56 35.8267 12.88 35.16C12.2133 34.48 11.6867 33.6867 11.3 32.78C10.9267 31.8733 10.74 30.8933 10.74 29.84C10.74 28.7867 10.9267 27.8067 11.3 26.9C11.6867 25.9933 12.2133 25.2067 12.88 24.54C13.56 23.86 14.36 23.3267 15.28 22.94C16.2 22.5533 17.2 22.36 18.28 22.36C19.36 22.36 20.36 22.5533 21.28 22.94C22.2 23.3267 22.9933 23.86 23.66 24.54C24.34 25.2067 24.8667 25.9933 25.24 26.9C25.6267 27.8067 25.82 28.7867 25.82 29.84C25.82 30.8933 25.6267 31.8733 25.24 32.78C24.8667 33.6867 24.34 34.48 23.66 35.16C22.9933 35.8267 22.2 36.3533 21.28 36.74C20.36 37.1267 19.36 37.32 18.28 37.32ZM18.28 34.36C18.8933 34.36 19.4667 34.2533 20 34.04C20.5467 33.8267 21.02 33.52 21.42 33.12C21.82 32.72 22.1333 32.2467 22.36 31.7C22.5867 31.14 22.7 30.52 22.7 29.84C22.7 29.16 22.5867 28.5467 22.36 28C22.1333 27.44 21.82 26.96 21.42 26.56C21.02 26.16 20.5467 25.8533 20 25.64C19.4667 25.4267 18.8933 25.32 18.28 25.32C17.6533 25.32 17.0733 25.4267 16.54 25.64C16.0067 25.8533 15.54 26.16 15.14 26.56C14.74 26.96 14.4267 27.44 14.2 28C13.9733 28.5467 13.86 29.16 13.86 29.84C13.86 30.52 13.9733 31.14 14.2 31.7C14.4267 32.2467 14.74 32.72 15.14 33.12C15.54 33.52 16.0067 33.8267 16.54 34.04C17.0733 34.2533 17.6533 34.36 18.28 34.36ZM28.0025 22.68H31.0825L35.1625 29.68H35.3625L39.4425 22.68H42.5225V37H39.4425V30.66L39.6425 28.26H39.4425L36.1825 33.96H34.3425L31.0825 28.26H30.8825L31.0825 30.66V37H28.0025V22.68ZM46.8448 37.12C46.3115 37.12 45.8582 36.9333 45.4848 36.56C45.1115 36.1867 44.9248 35.7333 44.9248 35.2C44.9248 34.6667 45.1115 34.2133 45.4848 33.84C45.8582 33.4667 46.3115 33.28 46.8448 33.28C47.3782 33.28 47.8315 33.4667 48.2048 33.84C48.5782 34.2133 48.7648 34.6667 48.7648 35.2C48.7648 35.7333 48.5782 36.1867 48.2048 36.56C47.8315 36.9333 47.3782 37.12 46.8448 37.12Z" fill="#783DFF"/>
</svg>
